<?xml version="1.0" encoding="UTF-8" standalone="no"?>
<!DOCTYPE svg PUBLIC "-//W3C//DTD SVG 20010904//EN" "http://www.w3.org/TR/2001/REC-SVG-20010904/DTD/svg10.dtd">

<svg xmlns="http://www.w3.org/2000/svg" width="512" height="512" viewBox="0 0 354 354">
  <style>
    #vc-logo-new-2 {
      fill: #000000;
      stroke: white;
    }
    @media (prefers-color-scheme: dark) {
      #vc-logo-new-2 {
        fill: #ffffff;
        stroke: black;
      }
    }
  </style>
  <path id="vc-logo-new-2" stroke-width="1" d="M 10.00,69.00
           C 10.00,69.00 61.00,69.00 61.00,69.00
             63.23,69.00 66.57,68.76 68.47,69.99
             70.46,71.28 72.22,74.93 73.42,77.00
             73.42,77.00 81.72,91.00 81.72,91.00
             81.72,91.00 121.85,160.00 121.85,160.00
             121.85,160.00 152.28,212.00 152.28,212.00
             154.33,215.60 159.84,226.94 163.21,228.40
             164.88,229.12 168.13,229.00 170.00,229.00
             170.00,229.00 343.00,229.00 343.00,229.00
             343.00,229.00 329.81,251.00 329.81,251.00
             329.81,251.00 317.66,271.00 317.66,271.00
             309.27,283.91 311.44,284.98 301.00,285.00
             301.00,285.00 147.00,285.00 147.00,285.00
             137.32,284.98 139.17,284.87 130.58,271.00
             130.58,271.00 109.45,236.00 109.45,236.00
             109.45,236.00 42.00,124.00 42.00,124.00
             42.00,124.00 22.19,91.00 22.19,91.00
             18.29,84.62 12.20,75.96 10.00,69.00 Z
           M 167.00,203.00
           C 167.00,203.00 146.80,168.00 146.80,168.00
             145.05,165.07 139.15,155.93 139.20,153.00
             139.27,149.86 144.37,143.70 146.29,141.00
             146.29,141.00 166.37,113.00 166.37,113.00
             166.37,113.00 185.12,87.00 185.12,87.00
             191.56,78.25 191.61,74.02 203.00,74.00
             203.00,74.00 300.00,74.00 300.00,74.00
             311.00,74.02 310.85,77.77 317.00,87.00
             322.20,94.80 339.39,119.18 342.00,126.00
             342.00,126.00 226.00,126.00 226.00,126.00
             223.99,126.00 220.88,125.88 219.04,126.60
             214.37,128.41 207.48,141.36 204.58,146.00
             204.58,146.00 180.95,183.00 180.95,183.00
             177.13,189.03 172.22,198.57 167.00,203.00 Z" />
</svg>
